<svg width="85" height="92" viewBox="0 0 85 92" fill="none" xmlns="http://www.w3.org/2000/svg">
<path d="M81.7033 84.8333H36.6049C39.0502 76.4531 40.4216 65.6122 40.4216 54.2779C40.4216 29.1405 26.2201 9.10763 25.6156 8.26732C25.0718 7.51139 24.2422 7.07037 23.3641 7.07037C22.4861 7.07037 21.6564 7.51139 21.1126 8.26732C20.5082 9.10763 6.3066 29.1408 6.3066 54.2779C6.3066 65.6122 7.67776 76.4531 10.1233 84.8333H2.86682C1.28359 84.8333 0 86.2401 0 87.9753C0 89.7105 1.28359 91.1173 2.86682 91.1173H81.7033C83.2865 91.1173 84.5701 89.7105 84.5701 87.9753C84.5701 86.2401 83.2863 84.8333 81.7033 84.8333ZM30.5499 84.8333H26.2309V21.0313C30.0786 28.7804 34.688 40.8622 34.688 54.2779C34.688 65.9165 33.1909 76.8963 30.5499 84.8333ZM12.0405 54.2779C12.0405 40.8615 16.6503 28.7798 20.4976 21.0313V84.8333H16.1786C13.5376 76.8963 12.0405 65.9165 12.0405 54.2779Z" fill="#FFBA08"/>
<path d="M76.2585 24.1937C76.2585 16.1362 70.2776 9.58127 62.9258 9.58127C55.574 9.58127 49.5931 16.1362 49.5931 24.1937C49.5931 32.2511 55.574 38.8061 62.9258 38.8061C70.2776 38.8061 76.2585 32.2511 76.2585 24.1937ZM62.9258 32.5224C58.7356 32.5224 55.3265 28.7861 55.3265 24.1937C55.3265 19.6013 58.7356 15.8649 62.9258 15.8649C67.116 15.8649 70.5251 19.6013 70.5251 24.1937C70.5251 28.7861 67.116 32.5224 62.9258 32.5224Z" fill="#FFBA08"/>
<path d="M62.9257 8.89084C64.509 8.89084 65.7925 7.48405 65.7925 5.74886V3.14198C65.7925 1.40679 64.509 0 62.9257 0C61.3425 0 60.0589 1.40679 60.0589 3.14198V5.74886C60.0589 7.48405 61.3425 8.89084 62.9257 8.89084Z" fill="#FFBA08"/>
<path d="M60.0589 42.6378V45.2447C60.0589 46.9799 61.3425 48.3867 62.9257 48.3867C64.509 48.3867 65.7925 46.9799 65.7925 45.2447V42.6378C65.7925 40.9026 64.509 39.4958 62.9257 39.4958C61.3425 39.4961 60.0589 40.9029 60.0589 42.6378Z" fill="#FFBA08"/>
<path d="M76.8878 24.1937C76.8878 25.9289 78.1714 27.3357 79.7546 27.3357H82.1332C83.7164 27.3357 85 25.9289 85 24.1937C85 22.4585 83.7164 21.0517 82.1332 21.0517H79.7546C78.1716 21.0517 76.8878 22.4588 76.8878 24.1937Z" fill="#FFBA08"/>
<path d="M43.7183 27.3357H46.0969C47.6801 27.3357 48.9637 25.9289 48.9637 24.1937C48.9637 22.4585 47.6801 21.0517 46.0969 21.0517H43.7183C42.1351 21.0517 40.8515 22.4585 40.8515 24.1937C40.8515 25.9289 42.1351 27.3357 43.7183 27.3357Z" fill="#FFBA08"/>
<path d="M74.8255 14.2938C75.5593 14.2938 76.2928 13.987 76.8526 13.3735L78.5345 11.5301C79.6541 10.303 79.6541 8.31343 78.5345 7.08669C77.4147 5.85994 75.5999 5.85994 74.4803 7.08669L72.7983 8.9301C71.6787 10.1572 71.6787 12.1467 72.7983 13.3735C73.3581 13.987 74.0917 14.2938 74.8255 14.2938Z" fill="#FFBA08"/>
<path d="M48.9989 35.0139L47.317 36.8573C46.1974 38.0843 46.1974 40.0739 47.317 41.3007C47.8768 41.9139 48.6103 42.221 49.3441 42.221C50.0779 42.221 50.8114 41.9142 51.3712 41.3007L53.0532 39.4573C54.1728 38.2302 54.1728 36.2406 53.0532 35.0139C51.9336 33.7871 50.1188 33.7871 48.9989 35.0139Z" fill="#FFBA08"/>
<path d="M74.4803 41.3007C75.0401 41.9139 75.7736 42.221 76.5074 42.221C77.2412 42.221 77.9747 41.9142 78.5345 41.3007C79.6541 40.0736 79.6541 38.084 78.5345 36.8573L76.8526 35.0139C75.7327 33.7871 73.9179 33.7871 72.7983 35.0139C71.6787 36.2409 71.6787 38.2305 72.7983 39.4573L74.4803 41.3007Z" fill="#FFBA08"/>
<path d="M48.9989 13.3738C49.5587 13.987 50.2923 14.2941 51.0261 14.2941C51.7599 14.2941 52.4934 13.9873 53.0532 13.3738C54.1728 12.1467 54.1728 10.1572 53.0532 8.93041L51.3712 7.087C50.2513 5.86026 48.4366 5.86026 47.317 7.087C46.1974 8.31406 46.1974 10.3036 47.317 11.5304L48.9989 13.3738Z" fill="#FFBA08"/>
</svg>
